<mxfile host="Electron" modified="2024-04-01T21:01:33.169Z" agent="Mozilla/5.0 (Windows NT 10.0; Win64; x64) AppleWebKit/537.36 (KHTML, like Gecko) draw.io/24.1.0 Chrome/120.0.6099.109 Electron/28.1.0 Safari/537.36" etag="jfW3vzX4CzrPeXeJDwPT" version="24.1.0" type="device">
  <diagram name="Page-1" id="H2FOLK643TPE5QBh98ee">
    <mxGraphModel dx="4780" dy="2930" grid="1" gridSize="10" guides="1" tooltips="1" connect="1" arrows="1" fold="1" page="1" pageScale="1" pageWidth="850" pageHeight="1100" math="0" shadow="0">
      <root>
        <mxCell id="0" />
        <mxCell id="1" parent="0" />
        <mxCell id="QdD4jBaarpmnHsl3jWZD-4" value="Browse Products" style="ellipse;whiteSpace=wrap;html=1;" parent="1" vertex="1">
          <mxGeometry x="80" y="500" width="120" height="80" as="geometry" />
        </mxCell>
        <mxCell id="QdD4jBaarpmnHsl3jWZD-5" style="rounded=0;orthogonalLoop=1;jettySize=auto;html=1;entryX=0;entryY=0.5;entryDx=0;entryDy=0;" parent="1" source="QdD4jBaarpmnHsl3jWZD-6" target="QdD4jBaarpmnHsl3jWZD-4" edge="1">
          <mxGeometry relative="1" as="geometry">
            <mxPoint x="170" y="690" as="sourcePoint" />
            <mxPoint x="310" y="690" as="targetPoint" />
          </mxGeometry>
        </mxCell>
        <mxCell id="QdD4jBaarpmnHsl3jWZD-6" value="Customer" style="shape=umlActor;verticalLabelPosition=bottom;verticalAlign=top;html=1;outlineConnect=0;" parent="1" vertex="1">
          <mxGeometry x="30" y="1580" width="30" height="60" as="geometry" />
        </mxCell>
        <mxCell id="QdD4jBaarpmnHsl3jWZD-7" value="View&amp;nbsp;Products" style="ellipse;whiteSpace=wrap;html=1;" parent="1" vertex="1">
          <mxGeometry x="375" y="310" width="120" height="80" as="geometry" />
        </mxCell>
        <mxCell id="QdD4jBaarpmnHsl3jWZD-8" value="Explore Products" style="ellipse;whiteSpace=wrap;html=1;" parent="1" vertex="1">
          <mxGeometry x="375" y="670" width="120" height="80" as="geometry" />
        </mxCell>
        <mxCell id="QdD4jBaarpmnHsl3jWZD-9" value="" style="endArrow=block;dashed=1;endFill=0;endSize=12;html=1;rounded=0;exitX=0;exitY=0.5;exitDx=0;exitDy=0;entryX=1;entryY=0.5;entryDx=0;entryDy=0;" parent="1" source="QdD4jBaarpmnHsl3jWZD-8" target="QdD4jBaarpmnHsl3jWZD-4" edge="1">
          <mxGeometry width="160" relative="1" as="geometry">
            <mxPoint x="365" y="539.66" as="sourcePoint" />
            <mxPoint x="225" y="539.66" as="targetPoint" />
          </mxGeometry>
        </mxCell>
        <mxCell id="QdD4jBaarpmnHsl3jWZD-10" value="&amp;lt;&amp;lt;Extend&amp;gt;&amp;gt;" style="edgeLabel;html=1;align=center;verticalAlign=middle;resizable=0;points=[];" parent="QdD4jBaarpmnHsl3jWZD-9" vertex="1" connectable="0">
          <mxGeometry x="-0.2167" y="1" relative="1" as="geometry">
            <mxPoint x="15" y="-9" as="offset" />
          </mxGeometry>
        </mxCell>
        <mxCell id="QdD4jBaarpmnHsl3jWZD-11" value="" style="endArrow=block;dashed=1;endFill=0;endSize=12;html=1;rounded=0;exitX=1;exitY=0.5;exitDx=0;exitDy=0;entryX=0;entryY=0.5;entryDx=0;entryDy=0;" parent="1" source="QdD4jBaarpmnHsl3jWZD-4" target="QdD4jBaarpmnHsl3jWZD-7" edge="1">
          <mxGeometry width="160" relative="1" as="geometry">
            <mxPoint x="225" y="540" as="sourcePoint" />
            <mxPoint x="385" y="450" as="targetPoint" />
          </mxGeometry>
        </mxCell>
        <mxCell id="QdD4jBaarpmnHsl3jWZD-12" value="&amp;lt;&amp;lt;Include&amp;gt;&amp;gt;" style="edgeLabel;html=1;align=center;verticalAlign=middle;resizable=0;points=[];" parent="QdD4jBaarpmnHsl3jWZD-11" vertex="1" connectable="0">
          <mxGeometry x="-0.2167" y="1" relative="1" as="geometry">
            <mxPoint x="15" y="-9" as="offset" />
          </mxGeometry>
        </mxCell>
        <mxCell id="QdD4jBaarpmnHsl3jWZD-13" value="Manage Shopping Cart" style="ellipse;whiteSpace=wrap;html=1;" parent="1" vertex="1">
          <mxGeometry x="90" y="1540" width="120" height="80" as="geometry" />
        </mxCell>
        <mxCell id="QdD4jBaarpmnHsl3jWZD-14" value="Add to Cart" style="ellipse;whiteSpace=wrap;html=1;" parent="1" vertex="1">
          <mxGeometry x="410" y="1290" width="120" height="80" as="geometry" />
        </mxCell>
        <mxCell id="QdD4jBaarpmnHsl3jWZD-15" value="Remove from Cart" style="ellipse;whiteSpace=wrap;html=1;" parent="1" vertex="1">
          <mxGeometry x="410" y="1540" width="120" height="80" as="geometry" />
        </mxCell>
        <mxCell id="QdD4jBaarpmnHsl3jWZD-16" value="" style="endArrow=block;dashed=1;endFill=0;endSize=12;html=1;rounded=0;exitX=1;exitY=0.5;exitDx=0;exitDy=0;entryX=0;entryY=0.5;entryDx=0;entryDy=0;" parent="1" source="QdD4jBaarpmnHsl3jWZD-13" target="QdD4jBaarpmnHsl3jWZD-15" edge="1">
          <mxGeometry width="160" relative="1" as="geometry">
            <mxPoint x="212.5" y="1260" as="sourcePoint" />
            <mxPoint x="377.5" y="1259.6599999999999" as="targetPoint" />
          </mxGeometry>
        </mxCell>
        <mxCell id="QdD4jBaarpmnHsl3jWZD-17" value="&amp;lt;&amp;lt;Include&amp;gt;&amp;gt;" style="edgeLabel;html=1;align=center;verticalAlign=middle;resizable=0;points=[];" parent="QdD4jBaarpmnHsl3jWZD-16" vertex="1" connectable="0">
          <mxGeometry x="-0.2167" y="1" relative="1" as="geometry">
            <mxPoint x="15" y="-9" as="offset" />
          </mxGeometry>
        </mxCell>
        <mxCell id="QdD4jBaarpmnHsl3jWZD-18" value="" style="endArrow=block;dashed=1;endFill=0;endSize=12;html=1;rounded=0;exitX=1;exitY=0.5;exitDx=0;exitDy=0;entryX=0;entryY=0.5;entryDx=0;entryDy=0;" parent="1" source="QdD4jBaarpmnHsl3jWZD-13" target="QdD4jBaarpmnHsl3jWZD-14" edge="1">
          <mxGeometry width="160" relative="1" as="geometry">
            <mxPoint x="212.5" y="1260" as="sourcePoint" />
            <mxPoint x="397.5" y="1170" as="targetPoint" />
          </mxGeometry>
        </mxCell>
        <mxCell id="QdD4jBaarpmnHsl3jWZD-19" value="&amp;lt;&amp;lt;Include&amp;gt;&amp;gt;" style="edgeLabel;html=1;align=center;verticalAlign=middle;resizable=0;points=[];" parent="QdD4jBaarpmnHsl3jWZD-18" vertex="1" connectable="0">
          <mxGeometry x="-0.2167" y="1" relative="1" as="geometry">
            <mxPoint x="15" y="-9" as="offset" />
          </mxGeometry>
        </mxCell>
        <mxCell id="QdD4jBaarpmnHsl3jWZD-20" value="Update Quantity" style="ellipse;whiteSpace=wrap;html=1;" parent="1" vertex="1">
          <mxGeometry x="410" y="1790" width="120" height="80" as="geometry" />
        </mxCell>
        <mxCell id="QdD4jBaarpmnHsl3jWZD-21" value="" style="endArrow=block;dashed=1;endFill=0;endSize=12;html=1;rounded=0;exitX=1;exitY=0.5;exitDx=0;exitDy=0;entryX=0;entryY=0.5;entryDx=0;entryDy=0;" parent="1" source="QdD4jBaarpmnHsl3jWZD-13" target="QdD4jBaarpmnHsl3jWZD-20" edge="1">
          <mxGeometry width="160" relative="1" as="geometry">
            <mxPoint x="190" y="1390" as="sourcePoint" />
            <mxPoint x="387.5" y="1349.6599999999999" as="targetPoint" />
          </mxGeometry>
        </mxCell>
        <mxCell id="QdD4jBaarpmnHsl3jWZD-22" value="&amp;lt;&amp;lt;Include&amp;gt;&amp;gt;" style="edgeLabel;html=1;align=center;verticalAlign=middle;resizable=0;points=[];" parent="QdD4jBaarpmnHsl3jWZD-21" vertex="1" connectable="0">
          <mxGeometry x="-0.2167" y="1" relative="1" as="geometry">
            <mxPoint x="15" y="-9" as="offset" />
          </mxGeometry>
        </mxCell>
        <mxCell id="QdD4jBaarpmnHsl3jWZD-23" value="Check Product Availability" style="ellipse;whiteSpace=wrap;html=1;" parent="1" vertex="1">
          <mxGeometry x="720" y="1210" width="120" height="80" as="geometry" />
        </mxCell>
        <mxCell id="QdD4jBaarpmnHsl3jWZD-24" value="Add Item to Cart" style="ellipse;whiteSpace=wrap;html=1;" parent="1" vertex="1">
          <mxGeometry x="720" y="1370" width="120" height="80" as="geometry" />
        </mxCell>
        <mxCell id="QdD4jBaarpmnHsl3jWZD-25" value="" style="endArrow=block;dashed=1;endFill=0;endSize=12;html=1;rounded=0;exitX=1;exitY=0.5;exitDx=0;exitDy=0;entryX=0;entryY=0.5;entryDx=0;entryDy=0;" parent="1" source="QdD4jBaarpmnHsl3jWZD-14" target="QdD4jBaarpmnHsl3jWZD-24" edge="1">
          <mxGeometry width="160" relative="1" as="geometry">
            <mxPoint x="640" y="1230" as="sourcePoint" />
            <mxPoint x="805" y="1229.6599999999999" as="targetPoint" />
          </mxGeometry>
        </mxCell>
        <mxCell id="QdD4jBaarpmnHsl3jWZD-26" value="&amp;lt;&amp;lt;Include&amp;gt;&amp;gt;" style="edgeLabel;html=1;align=center;verticalAlign=middle;resizable=0;points=[];" parent="QdD4jBaarpmnHsl3jWZD-25" vertex="1" connectable="0">
          <mxGeometry x="-0.2167" y="1" relative="1" as="geometry">
            <mxPoint x="15" y="-9" as="offset" />
          </mxGeometry>
        </mxCell>
        <mxCell id="QdD4jBaarpmnHsl3jWZD-27" value="" style="endArrow=block;dashed=1;endFill=0;endSize=12;html=1;rounded=0;exitX=1;exitY=0.5;exitDx=0;exitDy=0;entryX=0;entryY=0.5;entryDx=0;entryDy=0;" parent="1" source="QdD4jBaarpmnHsl3jWZD-14" target="QdD4jBaarpmnHsl3jWZD-23" edge="1">
          <mxGeometry width="160" relative="1" as="geometry">
            <mxPoint x="640" y="1230" as="sourcePoint" />
            <mxPoint x="825" y="1140" as="targetPoint" />
          </mxGeometry>
        </mxCell>
        <mxCell id="QdD4jBaarpmnHsl3jWZD-28" value="&amp;lt;&amp;lt;Include&amp;gt;&amp;gt;" style="edgeLabel;html=1;align=center;verticalAlign=middle;resizable=0;points=[];" parent="QdD4jBaarpmnHsl3jWZD-27" vertex="1" connectable="0">
          <mxGeometry x="-0.2167" y="1" relative="1" as="geometry">
            <mxPoint x="15" y="-9" as="offset" />
          </mxGeometry>
        </mxCell>
        <mxCell id="QdD4jBaarpmnHsl3jWZD-29" value="Retrieve Product Info" style="ellipse;whiteSpace=wrap;html=1;" parent="1" vertex="1">
          <mxGeometry x="700" y="230" width="120" height="80" as="geometry" />
        </mxCell>
        <mxCell id="QdD4jBaarpmnHsl3jWZD-30" value="Display Product Details" style="ellipse;whiteSpace=wrap;html=1;" parent="1" vertex="1">
          <mxGeometry x="700" y="390" width="120" height="80" as="geometry" />
        </mxCell>
        <mxCell id="QdD4jBaarpmnHsl3jWZD-31" value="" style="endArrow=block;dashed=1;endFill=0;endSize=12;html=1;rounded=0;exitX=0;exitY=0.5;exitDx=0;exitDy=0;entryX=1;entryY=0.5;entryDx=0;entryDy=0;" parent="1" source="QdD4jBaarpmnHsl3jWZD-30" target="QdD4jBaarpmnHsl3jWZD-7" edge="1">
          <mxGeometry width="160" relative="1" as="geometry">
            <mxPoint x="887" y="499.65999999999985" as="sourcePoint" />
            <mxPoint x="590" y="490" as="targetPoint" />
          </mxGeometry>
        </mxCell>
        <mxCell id="QdD4jBaarpmnHsl3jWZD-32" value="&amp;lt;&amp;lt;Extend&amp;gt;&amp;gt;" style="edgeLabel;html=1;align=center;verticalAlign=middle;resizable=0;points=[];" parent="QdD4jBaarpmnHsl3jWZD-31" vertex="1" connectable="0">
          <mxGeometry x="-0.2167" y="1" relative="1" as="geometry">
            <mxPoint x="15" y="-9" as="offset" />
          </mxGeometry>
        </mxCell>
        <mxCell id="QdD4jBaarpmnHsl3jWZD-33" value="" style="endArrow=block;dashed=1;endFill=0;endSize=12;html=1;rounded=0;exitX=0;exitY=0.5;exitDx=0;exitDy=0;entryX=1;entryY=0.5;entryDx=0;entryDy=0;" parent="1" source="QdD4jBaarpmnHsl3jWZD-29" target="QdD4jBaarpmnHsl3jWZD-7" edge="1">
          <mxGeometry width="160" relative="1" as="geometry">
            <mxPoint x="907" y="410" as="sourcePoint" />
            <mxPoint x="590" y="490" as="targetPoint" />
          </mxGeometry>
        </mxCell>
        <mxCell id="QdD4jBaarpmnHsl3jWZD-34" value="&amp;lt;&amp;lt;Extend&amp;gt;&amp;gt;" style="edgeLabel;html=1;align=center;verticalAlign=middle;resizable=0;points=[];" parent="QdD4jBaarpmnHsl3jWZD-33" vertex="1" connectable="0">
          <mxGeometry x="-0.2167" y="1" relative="1" as="geometry">
            <mxPoint x="15" y="-9" as="offset" />
          </mxGeometry>
        </mxCell>
        <mxCell id="QdD4jBaarpmnHsl3jWZD-35" value="Enter Search Criteria" style="ellipse;whiteSpace=wrap;html=1;" parent="1" vertex="1">
          <mxGeometry x="700" y="590" width="120" height="80" as="geometry" />
        </mxCell>
        <mxCell id="QdD4jBaarpmnHsl3jWZD-36" value="Display Search Results" style="ellipse;whiteSpace=wrap;html=1;" parent="1" vertex="1">
          <mxGeometry x="700" y="750" width="120" height="80" as="geometry" />
        </mxCell>
        <mxCell id="QdD4jBaarpmnHsl3jWZD-37" value="" style="endArrow=block;dashed=1;endFill=0;endSize=12;html=1;rounded=0;exitX=1;exitY=0.5;exitDx=0;exitDy=0;entryX=0;entryY=0.5;entryDx=0;entryDy=0;" parent="1" source="QdD4jBaarpmnHsl3jWZD-8" target="QdD4jBaarpmnHsl3jWZD-36" edge="1">
          <mxGeometry width="160" relative="1" as="geometry">
            <mxPoint x="505" y="640" as="sourcePoint" />
            <mxPoint x="897" y="639.6599999999999" as="targetPoint" />
          </mxGeometry>
        </mxCell>
        <mxCell id="QdD4jBaarpmnHsl3jWZD-38" value="&amp;lt;&amp;lt;Include&amp;gt;&amp;gt;" style="edgeLabel;html=1;align=center;verticalAlign=middle;resizable=0;points=[];" parent="QdD4jBaarpmnHsl3jWZD-37" vertex="1" connectable="0">
          <mxGeometry x="-0.2167" y="1" relative="1" as="geometry">
            <mxPoint x="15" y="-9" as="offset" />
          </mxGeometry>
        </mxCell>
        <mxCell id="QdD4jBaarpmnHsl3jWZD-39" value="" style="endArrow=block;dashed=1;endFill=0;endSize=12;html=1;rounded=0;exitX=1;exitY=0.5;exitDx=0;exitDy=0;entryX=0;entryY=0.5;entryDx=0;entryDy=0;" parent="1" source="QdD4jBaarpmnHsl3jWZD-8" target="QdD4jBaarpmnHsl3jWZD-35" edge="1">
          <mxGeometry width="160" relative="1" as="geometry">
            <mxPoint x="505" y="640" as="sourcePoint" />
            <mxPoint x="917" y="550" as="targetPoint" />
          </mxGeometry>
        </mxCell>
        <mxCell id="QdD4jBaarpmnHsl3jWZD-40" value="&amp;lt;&amp;lt;Include&amp;gt;&amp;gt;" style="edgeLabel;html=1;align=center;verticalAlign=middle;resizable=0;points=[];" parent="QdD4jBaarpmnHsl3jWZD-39" vertex="1" connectable="0">
          <mxGeometry x="-0.2167" y="1" relative="1" as="geometry">
            <mxPoint x="15" y="-9" as="offset" />
          </mxGeometry>
        </mxCell>
        <mxCell id="QdD4jBaarpmnHsl3jWZD-41" value="Remove Item from Cart" style="ellipse;whiteSpace=wrap;html=1;" parent="1" vertex="1">
          <mxGeometry x="720" y="1540" width="120" height="80" as="geometry" />
        </mxCell>
        <mxCell id="QdD4jBaarpmnHsl3jWZD-45" value="" style="endArrow=block;dashed=1;endFill=0;endSize=12;html=1;rounded=0;exitX=1;exitY=0.5;exitDx=0;exitDy=0;entryX=0;entryY=0.5;entryDx=0;entryDy=0;" parent="1" source="QdD4jBaarpmnHsl3jWZD-15" target="QdD4jBaarpmnHsl3jWZD-41" edge="1">
          <mxGeometry width="160" relative="1" as="geometry">
            <mxPoint x="600" y="1620" as="sourcePoint" />
            <mxPoint x="895" y="1430" as="targetPoint" />
          </mxGeometry>
        </mxCell>
        <mxCell id="QdD4jBaarpmnHsl3jWZD-46" value="&amp;lt;&amp;lt;Include&amp;gt;&amp;gt;" style="edgeLabel;html=1;align=center;verticalAlign=middle;resizable=0;points=[];" parent="QdD4jBaarpmnHsl3jWZD-45" vertex="1" connectable="0">
          <mxGeometry x="-0.2167" y="1" relative="1" as="geometry">
            <mxPoint x="15" y="-9" as="offset" />
          </mxGeometry>
        </mxCell>
        <mxCell id="QdD4jBaarpmnHsl3jWZD-47" value="Validate Quantity" style="ellipse;whiteSpace=wrap;html=1;" parent="1" vertex="1">
          <mxGeometry x="720" y="1700" width="120" height="80" as="geometry" />
        </mxCell>
        <mxCell id="QdD4jBaarpmnHsl3jWZD-48" value="Update Cart Quantity" style="ellipse;whiteSpace=wrap;html=1;" parent="1" vertex="1">
          <mxGeometry x="720" y="1870" width="120" height="80" as="geometry" />
        </mxCell>
        <mxCell id="QdD4jBaarpmnHsl3jWZD-49" value="" style="endArrow=block;dashed=1;endFill=0;endSize=12;html=1;rounded=0;entryX=0;entryY=0.5;entryDx=0;entryDy=0;exitX=1;exitY=0.5;exitDx=0;exitDy=0;" parent="1" source="QdD4jBaarpmnHsl3jWZD-20" target="QdD4jBaarpmnHsl3jWZD-48" edge="1">
          <mxGeometry width="160" relative="1" as="geometry">
            <mxPoint x="570" y="1790" as="sourcePoint" />
            <mxPoint x="845" y="1689.6599999999999" as="targetPoint" />
          </mxGeometry>
        </mxCell>
        <mxCell id="QdD4jBaarpmnHsl3jWZD-50" value="&amp;lt;&amp;lt;Include&amp;gt;&amp;gt;" style="edgeLabel;html=1;align=center;verticalAlign=middle;resizable=0;points=[];" parent="QdD4jBaarpmnHsl3jWZD-49" vertex="1" connectable="0">
          <mxGeometry x="-0.2167" y="1" relative="1" as="geometry">
            <mxPoint x="15" y="-9" as="offset" />
          </mxGeometry>
        </mxCell>
        <mxCell id="QdD4jBaarpmnHsl3jWZD-51" value="" style="endArrow=block;dashed=1;endFill=0;endSize=12;html=1;rounded=0;entryX=0;entryY=0.5;entryDx=0;entryDy=0;exitX=1;exitY=0.5;exitDx=0;exitDy=0;" parent="1" source="QdD4jBaarpmnHsl3jWZD-20" target="QdD4jBaarpmnHsl3jWZD-47" edge="1">
          <mxGeometry width="160" relative="1" as="geometry">
            <mxPoint x="550" y="1780" as="sourcePoint" />
            <mxPoint x="865" y="1600" as="targetPoint" />
          </mxGeometry>
        </mxCell>
        <mxCell id="QdD4jBaarpmnHsl3jWZD-52" value="&amp;lt;&amp;lt;Include&amp;gt;&amp;gt;" style="edgeLabel;html=1;align=center;verticalAlign=middle;resizable=0;points=[];" parent="QdD4jBaarpmnHsl3jWZD-51" vertex="1" connectable="0">
          <mxGeometry x="-0.2167" y="1" relative="1" as="geometry">
            <mxPoint x="15" y="-9" as="offset" />
          </mxGeometry>
        </mxCell>
        <mxCell id="QdD4jBaarpmnHsl3jWZD-53" value="Place Order" style="ellipse;whiteSpace=wrap;html=1;" parent="1" vertex="1">
          <mxGeometry x="80" y="2730" width="120" height="80" as="geometry" />
        </mxCell>
        <mxCell id="QdD4jBaarpmnHsl3jWZD-54" value="Confirm Order" style="ellipse;whiteSpace=wrap;html=1;" parent="1" vertex="1">
          <mxGeometry x="400" y="2480" width="120" height="80" as="geometry" />
        </mxCell>
        <mxCell id="QdD4jBaarpmnHsl3jWZD-55" value="Select Shipping method" style="ellipse;whiteSpace=wrap;html=1;" parent="1" vertex="1">
          <mxGeometry x="400" y="2730" width="120" height="80" as="geometry" />
        </mxCell>
        <mxCell id="QdD4jBaarpmnHsl3jWZD-56" value="" style="endArrow=block;dashed=1;endFill=0;endSize=12;html=1;rounded=0;exitX=1;exitY=0.5;exitDx=0;exitDy=0;entryX=0;entryY=0.5;entryDx=0;entryDy=0;" parent="1" source="QdD4jBaarpmnHsl3jWZD-53" target="QdD4jBaarpmnHsl3jWZD-55" edge="1">
          <mxGeometry width="160" relative="1" as="geometry">
            <mxPoint x="202.5" y="2450" as="sourcePoint" />
            <mxPoint x="367.5" y="2449.66" as="targetPoint" />
          </mxGeometry>
        </mxCell>
        <mxCell id="QdD4jBaarpmnHsl3jWZD-57" value="&amp;lt;&amp;lt;Include&amp;gt;&amp;gt;" style="edgeLabel;html=1;align=center;verticalAlign=middle;resizable=0;points=[];" parent="QdD4jBaarpmnHsl3jWZD-56" vertex="1" connectable="0">
          <mxGeometry x="-0.2167" y="1" relative="1" as="geometry">
            <mxPoint x="15" y="-9" as="offset" />
          </mxGeometry>
        </mxCell>
        <mxCell id="QdD4jBaarpmnHsl3jWZD-58" value="" style="endArrow=block;dashed=1;endFill=0;endSize=12;html=1;rounded=0;exitX=1;exitY=0.5;exitDx=0;exitDy=0;entryX=0;entryY=0.5;entryDx=0;entryDy=0;" parent="1" source="QdD4jBaarpmnHsl3jWZD-53" target="QdD4jBaarpmnHsl3jWZD-54" edge="1">
          <mxGeometry width="160" relative="1" as="geometry">
            <mxPoint x="202.5" y="2450" as="sourcePoint" />
            <mxPoint x="387.5" y="2360" as="targetPoint" />
          </mxGeometry>
        </mxCell>
        <mxCell id="QdD4jBaarpmnHsl3jWZD-59" value="&amp;lt;&amp;lt;Include&amp;gt;&amp;gt;" style="edgeLabel;html=1;align=center;verticalAlign=middle;resizable=0;points=[];" parent="QdD4jBaarpmnHsl3jWZD-58" vertex="1" connectable="0">
          <mxGeometry x="-0.2167" y="1" relative="1" as="geometry">
            <mxPoint x="15" y="-9" as="offset" />
          </mxGeometry>
        </mxCell>
        <mxCell id="QdD4jBaarpmnHsl3jWZD-60" value="Make Payment" style="ellipse;whiteSpace=wrap;html=1;" parent="1" vertex="1">
          <mxGeometry x="400" y="2980" width="120" height="80" as="geometry" />
        </mxCell>
        <mxCell id="QdD4jBaarpmnHsl3jWZD-61" value="" style="endArrow=block;dashed=1;endFill=0;endSize=12;html=1;rounded=0;exitX=1;exitY=0.5;exitDx=0;exitDy=0;entryX=0;entryY=0.5;entryDx=0;entryDy=0;" parent="1" source="QdD4jBaarpmnHsl3jWZD-53" target="QdD4jBaarpmnHsl3jWZD-60" edge="1">
          <mxGeometry width="160" relative="1" as="geometry">
            <mxPoint x="180" y="2580" as="sourcePoint" />
            <mxPoint x="377.5" y="2539.66" as="targetPoint" />
          </mxGeometry>
        </mxCell>
        <mxCell id="QdD4jBaarpmnHsl3jWZD-62" value="&amp;lt;&amp;lt;Include&amp;gt;&amp;gt;" style="edgeLabel;html=1;align=center;verticalAlign=middle;resizable=0;points=[];" parent="QdD4jBaarpmnHsl3jWZD-61" vertex="1" connectable="0">
          <mxGeometry x="-0.2167" y="1" relative="1" as="geometry">
            <mxPoint x="15" y="-9" as="offset" />
          </mxGeometry>
        </mxCell>
        <mxCell id="QdD4jBaarpmnHsl3jWZD-63" value="Display Order Summary" style="ellipse;whiteSpace=wrap;html=1;" parent="1" vertex="1">
          <mxGeometry x="710" y="2400" width="120" height="80" as="geometry" />
        </mxCell>
        <mxCell id="QdD4jBaarpmnHsl3jWZD-64" value="Confirm Order Details" style="ellipse;whiteSpace=wrap;html=1;" parent="1" vertex="1">
          <mxGeometry x="710" y="2560" width="120" height="80" as="geometry" />
        </mxCell>
        <mxCell id="QdD4jBaarpmnHsl3jWZD-65" value="" style="endArrow=block;dashed=1;endFill=0;endSize=12;html=1;rounded=0;exitX=1;exitY=0.5;exitDx=0;exitDy=0;entryX=0;entryY=0.5;entryDx=0;entryDy=0;" parent="1" source="QdD4jBaarpmnHsl3jWZD-54" target="QdD4jBaarpmnHsl3jWZD-64" edge="1">
          <mxGeometry width="160" relative="1" as="geometry">
            <mxPoint x="630" y="2420" as="sourcePoint" />
            <mxPoint x="795" y="2419.66" as="targetPoint" />
          </mxGeometry>
        </mxCell>
        <mxCell id="QdD4jBaarpmnHsl3jWZD-66" value="&amp;lt;&amp;lt;Include&amp;gt;&amp;gt;" style="edgeLabel;html=1;align=center;verticalAlign=middle;resizable=0;points=[];" parent="QdD4jBaarpmnHsl3jWZD-65" vertex="1" connectable="0">
          <mxGeometry x="-0.2167" y="1" relative="1" as="geometry">
            <mxPoint x="15" y="-9" as="offset" />
          </mxGeometry>
        </mxCell>
        <mxCell id="QdD4jBaarpmnHsl3jWZD-67" value="" style="endArrow=block;dashed=1;endFill=0;endSize=12;html=1;rounded=0;exitX=1;exitY=0.5;exitDx=0;exitDy=0;entryX=0;entryY=0.5;entryDx=0;entryDy=0;" parent="1" source="QdD4jBaarpmnHsl3jWZD-54" target="QdD4jBaarpmnHsl3jWZD-63" edge="1">
          <mxGeometry width="160" relative="1" as="geometry">
            <mxPoint x="630" y="2420" as="sourcePoint" />
            <mxPoint x="815" y="2330" as="targetPoint" />
          </mxGeometry>
        </mxCell>
        <mxCell id="QdD4jBaarpmnHsl3jWZD-68" value="&amp;lt;&amp;lt;Include&amp;gt;&amp;gt;" style="edgeLabel;html=1;align=center;verticalAlign=middle;resizable=0;points=[];" parent="QdD4jBaarpmnHsl3jWZD-67" vertex="1" connectable="0">
          <mxGeometry x="-0.2167" y="1" relative="1" as="geometry">
            <mxPoint x="15" y="-9" as="offset" />
          </mxGeometry>
        </mxCell>
        <mxCell id="QdD4jBaarpmnHsl3jWZD-69" value="Choose Shipping Option" style="ellipse;whiteSpace=wrap;html=1;" parent="1" vertex="1">
          <mxGeometry x="710" y="2790" width="120" height="80" as="geometry" />
        </mxCell>
        <mxCell id="QdD4jBaarpmnHsl3jWZD-70" value="" style="endArrow=block;dashed=1;endFill=0;endSize=12;html=1;rounded=0;exitX=1;exitY=0.5;exitDx=0;exitDy=0;entryX=0;entryY=0.5;entryDx=0;entryDy=0;" parent="1" source="QdD4jBaarpmnHsl3jWZD-55" target="QdD4jBaarpmnHsl3jWZD-69" edge="1">
          <mxGeometry width="160" relative="1" as="geometry">
            <mxPoint x="590" y="2810" as="sourcePoint" />
            <mxPoint x="885" y="2620" as="targetPoint" />
          </mxGeometry>
        </mxCell>
        <mxCell id="QdD4jBaarpmnHsl3jWZD-71" value="&amp;lt;&amp;lt;Include&amp;gt;&amp;gt;" style="edgeLabel;html=1;align=center;verticalAlign=middle;resizable=0;points=[];" parent="QdD4jBaarpmnHsl3jWZD-70" vertex="1" connectable="0">
          <mxGeometry x="-0.2167" y="1" relative="1" as="geometry">
            <mxPoint x="15" y="-9" as="offset" />
          </mxGeometry>
        </mxCell>
        <mxCell id="QdD4jBaarpmnHsl3jWZD-72" value="Enter Payment Information" style="ellipse;whiteSpace=wrap;html=1;" parent="1" vertex="1">
          <mxGeometry x="710" y="2890" width="120" height="80" as="geometry" />
        </mxCell>
        <mxCell id="QdD4jBaarpmnHsl3jWZD-73" value="Process Payment" style="ellipse;whiteSpace=wrap;html=1;" parent="1" vertex="1">
          <mxGeometry x="710" y="3060" width="120" height="80" as="geometry" />
        </mxCell>
        <mxCell id="QdD4jBaarpmnHsl3jWZD-74" value="" style="endArrow=block;dashed=1;endFill=0;endSize=12;html=1;rounded=0;entryX=0;entryY=0.5;entryDx=0;entryDy=0;exitX=1;exitY=0.5;exitDx=0;exitDy=0;" parent="1" source="QdD4jBaarpmnHsl3jWZD-60" target="QdD4jBaarpmnHsl3jWZD-73" edge="1">
          <mxGeometry width="160" relative="1" as="geometry">
            <mxPoint x="560" y="2980" as="sourcePoint" />
            <mxPoint x="835" y="2879.66" as="targetPoint" />
          </mxGeometry>
        </mxCell>
        <mxCell id="QdD4jBaarpmnHsl3jWZD-75" value="&amp;lt;&amp;lt;Include&amp;gt;&amp;gt;" style="edgeLabel;html=1;align=center;verticalAlign=middle;resizable=0;points=[];" parent="QdD4jBaarpmnHsl3jWZD-74" vertex="1" connectable="0">
          <mxGeometry x="-0.2167" y="1" relative="1" as="geometry">
            <mxPoint x="15" y="-9" as="offset" />
          </mxGeometry>
        </mxCell>
        <mxCell id="QdD4jBaarpmnHsl3jWZD-76" value="" style="endArrow=block;dashed=1;endFill=0;endSize=12;html=1;rounded=0;entryX=0;entryY=0.5;entryDx=0;entryDy=0;exitX=1;exitY=0.5;exitDx=0;exitDy=0;" parent="1" source="QdD4jBaarpmnHsl3jWZD-60" target="QdD4jBaarpmnHsl3jWZD-72" edge="1">
          <mxGeometry width="160" relative="1" as="geometry">
            <mxPoint x="540" y="2970" as="sourcePoint" />
            <mxPoint x="855" y="2790" as="targetPoint" />
          </mxGeometry>
        </mxCell>
        <mxCell id="QdD4jBaarpmnHsl3jWZD-77" value="&amp;lt;&amp;lt;Include&amp;gt;&amp;gt;" style="edgeLabel;html=1;align=center;verticalAlign=middle;resizable=0;points=[];" parent="QdD4jBaarpmnHsl3jWZD-76" vertex="1" connectable="0">
          <mxGeometry x="-0.2167" y="1" relative="1" as="geometry">
            <mxPoint x="15" y="-9" as="offset" />
          </mxGeometry>
        </mxCell>
        <mxCell id="QdD4jBaarpmnHsl3jWZD-78" value="Manage User Account" style="ellipse;whiteSpace=wrap;html=1;" parent="1" vertex="1">
          <mxGeometry x="50" y="3800" width="120" height="80" as="geometry" />
        </mxCell>
        <mxCell id="QdD4jBaarpmnHsl3jWZD-79" value="Login" style="ellipse;whiteSpace=wrap;html=1;" parent="1" vertex="1">
          <mxGeometry x="370" y="3550" width="120" height="80" as="geometry" />
        </mxCell>
        <mxCell id="QdD4jBaarpmnHsl3jWZD-80" value="Register" style="ellipse;whiteSpace=wrap;html=1;" parent="1" vertex="1">
          <mxGeometry x="370" y="3800" width="120" height="80" as="geometry" />
        </mxCell>
        <mxCell id="QdD4jBaarpmnHsl3jWZD-81" value="" style="endArrow=block;dashed=1;endFill=0;endSize=12;html=1;rounded=0;exitX=1;exitY=0.5;exitDx=0;exitDy=0;entryX=0;entryY=0.5;entryDx=0;entryDy=0;" parent="1" source="QdD4jBaarpmnHsl3jWZD-78" target="QdD4jBaarpmnHsl3jWZD-80" edge="1">
          <mxGeometry width="160" relative="1" as="geometry">
            <mxPoint x="172.5" y="3520" as="sourcePoint" />
            <mxPoint x="337.5" y="3519.66" as="targetPoint" />
          </mxGeometry>
        </mxCell>
        <mxCell id="QdD4jBaarpmnHsl3jWZD-82" value="&amp;lt;&amp;lt;Include&amp;gt;&amp;gt;" style="edgeLabel;html=1;align=center;verticalAlign=middle;resizable=0;points=[];" parent="QdD4jBaarpmnHsl3jWZD-81" vertex="1" connectable="0">
          <mxGeometry x="-0.2167" y="1" relative="1" as="geometry">
            <mxPoint x="15" y="-9" as="offset" />
          </mxGeometry>
        </mxCell>
        <mxCell id="QdD4jBaarpmnHsl3jWZD-83" value="" style="endArrow=block;dashed=1;endFill=0;endSize=12;html=1;rounded=0;exitX=1;exitY=0.5;exitDx=0;exitDy=0;entryX=0;entryY=0.5;entryDx=0;entryDy=0;" parent="1" source="QdD4jBaarpmnHsl3jWZD-78" target="QdD4jBaarpmnHsl3jWZD-79" edge="1">
          <mxGeometry width="160" relative="1" as="geometry">
            <mxPoint x="172.5" y="3520" as="sourcePoint" />
            <mxPoint x="357.5" y="3430" as="targetPoint" />
          </mxGeometry>
        </mxCell>
        <mxCell id="QdD4jBaarpmnHsl3jWZD-84" value="&amp;lt;&amp;lt;Include&amp;gt;&amp;gt;" style="edgeLabel;html=1;align=center;verticalAlign=middle;resizable=0;points=[];" parent="QdD4jBaarpmnHsl3jWZD-83" vertex="1" connectable="0">
          <mxGeometry x="-0.2167" y="1" relative="1" as="geometry">
            <mxPoint x="15" y="-9" as="offset" />
          </mxGeometry>
        </mxCell>
        <mxCell id="QdD4jBaarpmnHsl3jWZD-85" value="Update Profile" style="ellipse;whiteSpace=wrap;html=1;" parent="1" vertex="1">
          <mxGeometry x="370" y="4070" width="120" height="80" as="geometry" />
        </mxCell>
        <mxCell id="QdD4jBaarpmnHsl3jWZD-86" value="" style="endArrow=block;dashed=1;endFill=0;endSize=12;html=1;rounded=0;exitX=1;exitY=0.5;exitDx=0;exitDy=0;entryX=0;entryY=0.5;entryDx=0;entryDy=0;" parent="1" source="QdD4jBaarpmnHsl3jWZD-78" target="QdD4jBaarpmnHsl3jWZD-85" edge="1">
          <mxGeometry width="160" relative="1" as="geometry">
            <mxPoint x="150" y="3650" as="sourcePoint" />
            <mxPoint x="347.5" y="3609.66" as="targetPoint" />
          </mxGeometry>
        </mxCell>
        <mxCell id="QdD4jBaarpmnHsl3jWZD-87" value="&amp;lt;&amp;lt;Include&amp;gt;&amp;gt;" style="edgeLabel;html=1;align=center;verticalAlign=middle;resizable=0;points=[];" parent="QdD4jBaarpmnHsl3jWZD-86" vertex="1" connectable="0">
          <mxGeometry x="-0.2167" y="1" relative="1" as="geometry">
            <mxPoint x="15" y="-9" as="offset" />
          </mxGeometry>
        </mxCell>
        <mxCell id="QdD4jBaarpmnHsl3jWZD-88" value="Authenticate user" style="ellipse;whiteSpace=wrap;html=1;" parent="1" vertex="1">
          <mxGeometry x="680" y="3470" width="120" height="80" as="geometry" />
        </mxCell>
        <mxCell id="QdD4jBaarpmnHsl3jWZD-89" value="Grant Access" style="ellipse;whiteSpace=wrap;html=1;" parent="1" vertex="1">
          <mxGeometry x="680" y="3630" width="120" height="80" as="geometry" />
        </mxCell>
        <mxCell id="QdD4jBaarpmnHsl3jWZD-90" value="" style="endArrow=block;dashed=1;endFill=0;endSize=12;html=1;rounded=0;exitX=1;exitY=0.5;exitDx=0;exitDy=0;entryX=0;entryY=0.5;entryDx=0;entryDy=0;" parent="1" source="QdD4jBaarpmnHsl3jWZD-79" target="QdD4jBaarpmnHsl3jWZD-89" edge="1">
          <mxGeometry width="160" relative="1" as="geometry">
            <mxPoint x="600" y="3490" as="sourcePoint" />
            <mxPoint x="765" y="3489.66" as="targetPoint" />
          </mxGeometry>
        </mxCell>
        <mxCell id="QdD4jBaarpmnHsl3jWZD-91" value="&amp;lt;&amp;lt;Include&amp;gt;&amp;gt;" style="edgeLabel;html=1;align=center;verticalAlign=middle;resizable=0;points=[];" parent="QdD4jBaarpmnHsl3jWZD-90" vertex="1" connectable="0">
          <mxGeometry x="-0.2167" y="1" relative="1" as="geometry">
            <mxPoint x="15" y="-9" as="offset" />
          </mxGeometry>
        </mxCell>
        <mxCell id="QdD4jBaarpmnHsl3jWZD-92" value="" style="endArrow=block;dashed=1;endFill=0;endSize=12;html=1;rounded=0;exitX=1;exitY=0.5;exitDx=0;exitDy=0;entryX=0;entryY=0.5;entryDx=0;entryDy=0;" parent="1" source="QdD4jBaarpmnHsl3jWZD-79" target="QdD4jBaarpmnHsl3jWZD-88" edge="1">
          <mxGeometry width="160" relative="1" as="geometry">
            <mxPoint x="600" y="3490" as="sourcePoint" />
            <mxPoint x="785" y="3400" as="targetPoint" />
          </mxGeometry>
        </mxCell>
        <mxCell id="QdD4jBaarpmnHsl3jWZD-93" value="&amp;lt;&amp;lt;Include&amp;gt;&amp;gt;" style="edgeLabel;html=1;align=center;verticalAlign=middle;resizable=0;points=[];" parent="QdD4jBaarpmnHsl3jWZD-92" vertex="1" connectable="0">
          <mxGeometry x="-0.2167" y="1" relative="1" as="geometry">
            <mxPoint x="15" y="-9" as="offset" />
          </mxGeometry>
        </mxCell>
        <mxCell id="QdD4jBaarpmnHsl3jWZD-94" value="Enter Registration Details" style="ellipse;whiteSpace=wrap;html=1;" parent="1" vertex="1">
          <mxGeometry x="680" y="3720" width="120" height="80" as="geometry" />
        </mxCell>
        <mxCell id="QdD4jBaarpmnHsl3jWZD-95" value="" style="endArrow=block;dashed=1;endFill=0;endSize=12;html=1;rounded=0;exitX=1;exitY=0.5;exitDx=0;exitDy=0;entryX=0;entryY=0.5;entryDx=0;entryDy=0;" parent="1" source="QdD4jBaarpmnHsl3jWZD-80" target="QdD4jBaarpmnHsl3jWZD-94" edge="1">
          <mxGeometry width="160" relative="1" as="geometry">
            <mxPoint x="560" y="3880" as="sourcePoint" />
            <mxPoint x="855" y="3690" as="targetPoint" />
          </mxGeometry>
        </mxCell>
        <mxCell id="QdD4jBaarpmnHsl3jWZD-96" value="&amp;lt;&amp;lt;Include&amp;gt;&amp;gt;" style="edgeLabel;html=1;align=center;verticalAlign=middle;resizable=0;points=[];" parent="QdD4jBaarpmnHsl3jWZD-95" vertex="1" connectable="0">
          <mxGeometry x="-0.2167" y="1" relative="1" as="geometry">
            <mxPoint x="15" y="-9" as="offset" />
          </mxGeometry>
        </mxCell>
        <mxCell id="QdD4jBaarpmnHsl3jWZD-97" value="Edit User Info" style="ellipse;whiteSpace=wrap;html=1;" parent="1" vertex="1">
          <mxGeometry x="680" y="3990" width="120" height="80" as="geometry" />
        </mxCell>
        <mxCell id="QdD4jBaarpmnHsl3jWZD-98" value="Save changes" style="ellipse;whiteSpace=wrap;html=1;" parent="1" vertex="1">
          <mxGeometry x="680" y="4150" width="120" height="80" as="geometry" />
        </mxCell>
        <mxCell id="QdD4jBaarpmnHsl3jWZD-99" value="" style="endArrow=block;dashed=1;endFill=0;endSize=12;html=1;rounded=0;entryX=0;entryY=0.5;entryDx=0;entryDy=0;exitX=1;exitY=0.5;exitDx=0;exitDy=0;" parent="1" source="QdD4jBaarpmnHsl3jWZD-85" target="QdD4jBaarpmnHsl3jWZD-98" edge="1">
          <mxGeometry width="160" relative="1" as="geometry">
            <mxPoint x="530" y="4050" as="sourcePoint" />
            <mxPoint x="805" y="3949.66" as="targetPoint" />
          </mxGeometry>
        </mxCell>
        <mxCell id="QdD4jBaarpmnHsl3jWZD-100" value="&amp;lt;&amp;lt;Include&amp;gt;&amp;gt;" style="edgeLabel;html=1;align=center;verticalAlign=middle;resizable=0;points=[];" parent="QdD4jBaarpmnHsl3jWZD-99" vertex="1" connectable="0">
          <mxGeometry x="-0.2167" y="1" relative="1" as="geometry">
            <mxPoint x="15" y="-9" as="offset" />
          </mxGeometry>
        </mxCell>
        <mxCell id="QdD4jBaarpmnHsl3jWZD-101" value="" style="endArrow=block;dashed=1;endFill=0;endSize=12;html=1;rounded=0;entryX=0;entryY=0.5;entryDx=0;entryDy=0;exitX=1;exitY=0.5;exitDx=0;exitDy=0;" parent="1" source="QdD4jBaarpmnHsl3jWZD-85" target="QdD4jBaarpmnHsl3jWZD-97" edge="1">
          <mxGeometry width="160" relative="1" as="geometry">
            <mxPoint x="510" y="4040" as="sourcePoint" />
            <mxPoint x="825" y="3860" as="targetPoint" />
          </mxGeometry>
        </mxCell>
        <mxCell id="QdD4jBaarpmnHsl3jWZD-102" value="&amp;lt;&amp;lt;Include&amp;gt;&amp;gt;" style="edgeLabel;html=1;align=center;verticalAlign=middle;resizable=0;points=[];" parent="QdD4jBaarpmnHsl3jWZD-101" vertex="1" connectable="0">
          <mxGeometry x="-0.2167" y="1" relative="1" as="geometry">
            <mxPoint x="15" y="-9" as="offset" />
          </mxGeometry>
        </mxCell>
        <mxCell id="QdD4jBaarpmnHsl3jWZD-103" value="Create User Account" style="ellipse;whiteSpace=wrap;html=1;" parent="1" vertex="1">
          <mxGeometry x="675" y="3880" width="120" height="80" as="geometry" />
        </mxCell>
        <mxCell id="QdD4jBaarpmnHsl3jWZD-104" value="" style="endArrow=block;dashed=1;endFill=0;endSize=12;html=1;rounded=0;exitX=1;exitY=0.5;exitDx=0;exitDy=0;entryX=0;entryY=0.5;entryDx=0;entryDy=0;" parent="1" source="QdD4jBaarpmnHsl3jWZD-80" target="QdD4jBaarpmnHsl3jWZD-103" edge="1">
          <mxGeometry width="160" relative="1" as="geometry">
            <mxPoint x="562.5000000000005" y="3849.999999999999" as="sourcePoint" />
            <mxPoint x="882.5" y="3719.66" as="targetPoint" />
          </mxGeometry>
        </mxCell>
        <mxCell id="QdD4jBaarpmnHsl3jWZD-105" value="&amp;lt;&amp;lt;Include&amp;gt;&amp;gt;" style="edgeLabel;html=1;align=center;verticalAlign=middle;resizable=0;points=[];" parent="QdD4jBaarpmnHsl3jWZD-104" vertex="1" connectable="0">
          <mxGeometry x="-0.2167" y="1" relative="1" as="geometry">
            <mxPoint x="15" y="-9" as="offset" />
          </mxGeometry>
        </mxCell>
        <mxCell id="QdD4jBaarpmnHsl3jWZD-106" value="Administer System" style="ellipse;whiteSpace=wrap;html=1;" parent="1" vertex="1">
          <mxGeometry x="140" y="4710" width="120" height="80" as="geometry" />
        </mxCell>
        <mxCell id="QdD4jBaarpmnHsl3jWZD-107" value="Manage Products" style="ellipse;whiteSpace=wrap;html=1;" parent="1" vertex="1">
          <mxGeometry x="340" y="4620" width="120" height="80" as="geometry" />
        </mxCell>
        <mxCell id="QdD4jBaarpmnHsl3jWZD-108" value="Manage User Accounts" style="ellipse;whiteSpace=wrap;html=1;" parent="1" vertex="1">
          <mxGeometry x="330" y="4890" width="120" height="80" as="geometry" />
        </mxCell>
        <mxCell id="QdD4jBaarpmnHsl3jWZD-109" value="" style="endArrow=block;dashed=1;endFill=0;endSize=12;html=1;rounded=0;exitX=1;exitY=0.5;exitDx=0;exitDy=0;entryX=0;entryY=0.5;entryDx=0;entryDy=0;" parent="1" source="QdD4jBaarpmnHsl3jWZD-106" target="QdD4jBaarpmnHsl3jWZD-108" edge="1">
          <mxGeometry width="160" relative="1" as="geometry">
            <mxPoint x="262.5" y="4430" as="sourcePoint" />
            <mxPoint x="427.5" y="4429.66" as="targetPoint" />
          </mxGeometry>
        </mxCell>
        <mxCell id="QdD4jBaarpmnHsl3jWZD-110" value="&amp;lt;&amp;lt;Include&amp;gt;&amp;gt;" style="edgeLabel;html=1;align=center;verticalAlign=middle;resizable=0;points=[];" parent="QdD4jBaarpmnHsl3jWZD-109" vertex="1" connectable="0">
          <mxGeometry x="-0.2167" y="1" relative="1" as="geometry">
            <mxPoint x="15" y="-9" as="offset" />
          </mxGeometry>
        </mxCell>
        <mxCell id="QdD4jBaarpmnHsl3jWZD-111" value="" style="endArrow=block;dashed=1;endFill=0;endSize=12;html=1;rounded=0;exitX=1;exitY=0.5;exitDx=0;exitDy=0;entryX=0;entryY=0.5;entryDx=0;entryDy=0;" parent="1" source="QdD4jBaarpmnHsl3jWZD-106" target="QdD4jBaarpmnHsl3jWZD-107" edge="1">
          <mxGeometry width="160" relative="1" as="geometry">
            <mxPoint x="262.5" y="4430" as="sourcePoint" />
            <mxPoint x="447.5" y="4340" as="targetPoint" />
          </mxGeometry>
        </mxCell>
        <mxCell id="QdD4jBaarpmnHsl3jWZD-112" value="&amp;lt;&amp;lt;Include&amp;gt;&amp;gt;" style="edgeLabel;html=1;align=center;verticalAlign=middle;resizable=0;points=[];" parent="QdD4jBaarpmnHsl3jWZD-111" vertex="1" connectable="0">
          <mxGeometry x="-0.2167" y="1" relative="1" as="geometry">
            <mxPoint x="15" y="-9" as="offset" />
          </mxGeometry>
        </mxCell>
        <mxCell id="QdD4jBaarpmnHsl3jWZD-113" value="Generate Reports" style="ellipse;whiteSpace=wrap;html=1;" parent="1" vertex="1">
          <mxGeometry x="300" y="5150" width="120" height="80" as="geometry" />
        </mxCell>
        <mxCell id="QdD4jBaarpmnHsl3jWZD-116" value="Add New Product" style="ellipse;whiteSpace=wrap;html=1;" parent="1" vertex="1">
          <mxGeometry x="600" y="4440" width="120" height="80" as="geometry" />
        </mxCell>
        <mxCell id="QdD4jBaarpmnHsl3jWZD-117" value="Remove Existing Product" style="ellipse;whiteSpace=wrap;html=1;" parent="1" vertex="1">
          <mxGeometry x="600" y="4630" width="120" height="80" as="geometry" />
        </mxCell>
        <mxCell id="QdD4jBaarpmnHsl3jWZD-118" value="" style="endArrow=block;dashed=1;endFill=0;endSize=12;html=1;rounded=0;exitX=1;exitY=0.5;exitDx=0;exitDy=0;entryX=0;entryY=0.5;entryDx=0;entryDy=0;" parent="1" source="QdD4jBaarpmnHsl3jWZD-107" target="QdD4jBaarpmnHsl3jWZD-117" edge="1">
          <mxGeometry width="160" relative="1" as="geometry">
            <mxPoint x="690" y="4400" as="sourcePoint" />
            <mxPoint x="855" y="4399.66" as="targetPoint" />
          </mxGeometry>
        </mxCell>
        <mxCell id="QdD4jBaarpmnHsl3jWZD-119" value="&amp;lt;&amp;lt;Include&amp;gt;&amp;gt;" style="edgeLabel;html=1;align=center;verticalAlign=middle;resizable=0;points=[];" parent="QdD4jBaarpmnHsl3jWZD-118" vertex="1" connectable="0">
          <mxGeometry x="-0.2167" y="1" relative="1" as="geometry">
            <mxPoint x="15" y="-9" as="offset" />
          </mxGeometry>
        </mxCell>
        <mxCell id="QdD4jBaarpmnHsl3jWZD-120" value="" style="endArrow=block;dashed=1;endFill=0;endSize=12;html=1;rounded=0;exitX=1;exitY=0.5;exitDx=0;exitDy=0;entryX=0;entryY=0.5;entryDx=0;entryDy=0;" parent="1" source="QdD4jBaarpmnHsl3jWZD-107" target="QdD4jBaarpmnHsl3jWZD-116" edge="1">
          <mxGeometry width="160" relative="1" as="geometry">
            <mxPoint x="690" y="4400" as="sourcePoint" />
            <mxPoint x="875" y="4310" as="targetPoint" />
          </mxGeometry>
        </mxCell>
        <mxCell id="QdD4jBaarpmnHsl3jWZD-121" value="&amp;lt;&amp;lt;Include&amp;gt;&amp;gt;" style="edgeLabel;html=1;align=center;verticalAlign=middle;resizable=0;points=[];" parent="QdD4jBaarpmnHsl3jWZD-120" vertex="1" connectable="0">
          <mxGeometry x="-0.2167" y="1" relative="1" as="geometry">
            <mxPoint x="15" y="-9" as="offset" />
          </mxGeometry>
        </mxCell>
        <mxCell id="QdD4jBaarpmnHsl3jWZD-122" value="View user List" style="ellipse;whiteSpace=wrap;html=1;" parent="1" vertex="1">
          <mxGeometry x="595" y="4720" width="120" height="80" as="geometry" />
        </mxCell>
        <mxCell id="QdD4jBaarpmnHsl3jWZD-123" value="" style="endArrow=block;dashed=1;endFill=0;endSize=12;html=1;rounded=0;exitX=1;exitY=0.5;exitDx=0;exitDy=0;entryX=0;entryY=0.5;entryDx=0;entryDy=0;" parent="1" source="QdD4jBaarpmnHsl3jWZD-108" target="QdD4jBaarpmnHsl3jWZD-122" edge="1">
          <mxGeometry width="160" relative="1" as="geometry">
            <mxPoint x="650" y="4790" as="sourcePoint" />
            <mxPoint x="945" y="4600" as="targetPoint" />
          </mxGeometry>
        </mxCell>
        <mxCell id="QdD4jBaarpmnHsl3jWZD-124" value="&amp;lt;&amp;lt;Include&amp;gt;&amp;gt;" style="edgeLabel;html=1;align=center;verticalAlign=middle;resizable=0;points=[];" parent="QdD4jBaarpmnHsl3jWZD-123" vertex="1" connectable="0">
          <mxGeometry x="-0.2167" y="1" relative="1" as="geometry">
            <mxPoint x="15" y="-9" as="offset" />
          </mxGeometry>
        </mxCell>
        <mxCell id="QdD4jBaarpmnHsl3jWZD-125" value="Select Report Type" style="ellipse;whiteSpace=wrap;html=1;" parent="1" vertex="1">
          <mxGeometry x="605" y="5080" width="120" height="80" as="geometry" />
        </mxCell>
        <mxCell id="QdD4jBaarpmnHsl3jWZD-126" value="Generate Report" style="ellipse;whiteSpace=wrap;html=1;" parent="1" vertex="1">
          <mxGeometry x="610" y="5260" width="120" height="80" as="geometry" />
        </mxCell>
        <mxCell id="QdD4jBaarpmnHsl3jWZD-127" value="" style="endArrow=block;dashed=1;endFill=0;endSize=12;html=1;rounded=0;entryX=0;entryY=0.5;entryDx=0;entryDy=0;exitX=1;exitY=0.5;exitDx=0;exitDy=0;" parent="1" source="QdD4jBaarpmnHsl3jWZD-113" target="QdD4jBaarpmnHsl3jWZD-126" edge="1">
          <mxGeometry width="160" relative="1" as="geometry">
            <mxPoint x="460" y="5050" as="sourcePoint" />
            <mxPoint x="735" y="4949.66" as="targetPoint" />
          </mxGeometry>
        </mxCell>
        <mxCell id="QdD4jBaarpmnHsl3jWZD-128" value="&amp;lt;&amp;lt;Include&amp;gt;&amp;gt;" style="edgeLabel;html=1;align=center;verticalAlign=middle;resizable=0;points=[];" parent="QdD4jBaarpmnHsl3jWZD-127" vertex="1" connectable="0">
          <mxGeometry x="-0.2167" y="1" relative="1" as="geometry">
            <mxPoint x="15" y="-9" as="offset" />
          </mxGeometry>
        </mxCell>
        <mxCell id="QdD4jBaarpmnHsl3jWZD-129" value="" style="endArrow=block;dashed=1;endFill=0;endSize=12;html=1;rounded=0;entryX=0;entryY=0.5;entryDx=0;entryDy=0;exitX=1;exitY=0.5;exitDx=0;exitDy=0;" parent="1" source="QdD4jBaarpmnHsl3jWZD-113" target="QdD4jBaarpmnHsl3jWZD-125" edge="1">
          <mxGeometry width="160" relative="1" as="geometry">
            <mxPoint x="440" y="5040" as="sourcePoint" />
            <mxPoint x="755" y="4860" as="targetPoint" />
          </mxGeometry>
        </mxCell>
        <mxCell id="QdD4jBaarpmnHsl3jWZD-130" value="&amp;lt;&amp;lt;Include&amp;gt;&amp;gt;" style="edgeLabel;html=1;align=center;verticalAlign=middle;resizable=0;points=[];" parent="QdD4jBaarpmnHsl3jWZD-129" vertex="1" connectable="0">
          <mxGeometry x="-0.2167" y="1" relative="1" as="geometry">
            <mxPoint x="15" y="-9" as="offset" />
          </mxGeometry>
        </mxCell>
        <mxCell id="QdD4jBaarpmnHsl3jWZD-131" value="Edit User Info" style="ellipse;whiteSpace=wrap;html=1;" parent="1" vertex="1">
          <mxGeometry x="600" y="4980" width="120" height="80" as="geometry" />
        </mxCell>
        <mxCell id="QdD4jBaarpmnHsl3jWZD-132" value="" style="endArrow=block;dashed=1;endFill=0;endSize=12;html=1;rounded=0;exitX=1;exitY=0.5;exitDx=0;exitDy=0;entryX=0;entryY=0.5;entryDx=0;entryDy=0;" parent="1" source="QdD4jBaarpmnHsl3jWZD-108" target="QdD4jBaarpmnHsl3jWZD-131" edge="1">
          <mxGeometry width="160" relative="1" as="geometry">
            <mxPoint x="652.5000000000005" y="4759.999999999999" as="sourcePoint" />
            <mxPoint x="765" y="4920" as="targetPoint" />
          </mxGeometry>
        </mxCell>
        <mxCell id="QdD4jBaarpmnHsl3jWZD-133" value="&amp;lt;&amp;lt;Include&amp;gt;&amp;gt;" style="edgeLabel;html=1;align=center;verticalAlign=middle;resizable=0;points=[];" parent="QdD4jBaarpmnHsl3jWZD-132" vertex="1" connectable="0">
          <mxGeometry x="-0.2167" y="1" relative="1" as="geometry">
            <mxPoint x="15" y="-9" as="offset" />
          </mxGeometry>
        </mxCell>
        <mxCell id="QdD4jBaarpmnHsl3jWZD-134" value="Admin" style="shape=umlActor;verticalLabelPosition=bottom;verticalAlign=top;html=1;outlineConnect=0;" parent="1" vertex="1">
          <mxGeometry x="80" y="4690" width="30" height="60" as="geometry" />
        </mxCell>
        <mxCell id="QdD4jBaarpmnHsl3jWZD-135" style="rounded=0;orthogonalLoop=1;jettySize=auto;html=1;entryX=0;entryY=0.5;entryDx=0;entryDy=0;" parent="1" source="QdD4jBaarpmnHsl3jWZD-6" target="QdD4jBaarpmnHsl3jWZD-13" edge="1">
          <mxGeometry relative="1" as="geometry">
            <mxPoint x="110" y="1140" as="sourcePoint" />
            <mxPoint x="330" y="1140" as="targetPoint" />
          </mxGeometry>
        </mxCell>
        <mxCell id="QdD4jBaarpmnHsl3jWZD-136" style="rounded=0;orthogonalLoop=1;jettySize=auto;html=1;entryX=0;entryY=0.5;entryDx=0;entryDy=0;exitX=1;exitY=1;exitDx=0;exitDy=0;exitPerimeter=0;" parent="1" source="QdD4jBaarpmnHsl3jWZD-6" target="QdD4jBaarpmnHsl3jWZD-53" edge="1">
          <mxGeometry relative="1" as="geometry">
            <mxPoint x="70" y="2180" as="sourcePoint" />
            <mxPoint x="250" y="2180" as="targetPoint" />
          </mxGeometry>
        </mxCell>
        <mxCell id="QdD4jBaarpmnHsl3jWZD-141" style="rounded=0;orthogonalLoop=1;jettySize=auto;html=1;entryX=0;entryY=0.5;entryDx=0;entryDy=0;exitX=1;exitY=1;exitDx=0;exitDy=0;exitPerimeter=0;" parent="1" source="QdD4jBaarpmnHsl3jWZD-6" target="QdD4jBaarpmnHsl3jWZD-78" edge="1">
          <mxGeometry relative="1" as="geometry">
            <mxPoint x="140" y="1620" as="sourcePoint" />
            <mxPoint x="320" y="2390" as="targetPoint" />
          </mxGeometry>
        </mxCell>
        <mxCell id="QdD4jBaarpmnHsl3jWZD-142" style="rounded=0;orthogonalLoop=1;jettySize=auto;html=1;entryX=0;entryY=0.5;entryDx=0;entryDy=0;exitX=1;exitY=1;exitDx=0;exitDy=0;exitPerimeter=0;" parent="1" source="QdD4jBaarpmnHsl3jWZD-134" target="QdD4jBaarpmnHsl3jWZD-106" edge="1">
          <mxGeometry relative="1" as="geometry">
            <mxPoint x="70" y="3800" as="sourcePoint" />
            <mxPoint x="265" y="4190" as="targetPoint" />
          </mxGeometry>
        </mxCell>
        <mxCell id="KILsr3_PLqIHw2CQALnG-37" value="Choose Premium Shipping Option" style="ellipse;whiteSpace=wrap;html=1;" parent="1" vertex="1">
          <mxGeometry x="710" y="2680" width="120" height="80" as="geometry" />
        </mxCell>
        <mxCell id="KILsr3_PLqIHw2CQALnG-38" value="" style="endArrow=block;dashed=1;endFill=0;endSize=12;html=1;rounded=0;exitX=0;exitY=0.5;exitDx=0;exitDy=0;entryX=1;entryY=0.5;entryDx=0;entryDy=0;" parent="1" source="KILsr3_PLqIHw2CQALnG-37" target="QdD4jBaarpmnHsl3jWZD-55" edge="1">
          <mxGeometry width="160" relative="1" as="geometry">
            <mxPoint x="740" y="2730" as="sourcePoint" />
            <mxPoint x="530" y="2730" as="targetPoint" />
          </mxGeometry>
        </mxCell>
        <mxCell id="KILsr3_PLqIHw2CQALnG-39" value="&amp;lt;&amp;lt;Extend&amp;gt;&amp;gt;" style="edgeLabel;html=1;align=center;verticalAlign=middle;resizable=0;points=[];" parent="KILsr3_PLqIHw2CQALnG-38" vertex="1" connectable="0">
          <mxGeometry x="-0.2167" y="1" relative="1" as="geometry">
            <mxPoint x="15" y="-9" as="offset" />
          </mxGeometry>
        </mxCell>
        <mxCell id="KILsr3_PLqIHw2CQALnG-40" value="Edit Product" style="ellipse;whiteSpace=wrap;html=1;" parent="1" vertex="1">
          <mxGeometry x="595" y="4540" width="120" height="80" as="geometry" />
        </mxCell>
        <mxCell id="KILsr3_PLqIHw2CQALnG-41" value="" style="endArrow=block;dashed=1;endFill=0;endSize=12;html=1;rounded=0;exitX=1;exitY=0.5;exitDx=0;exitDy=0;entryX=0;entryY=0.5;entryDx=0;entryDy=0;" parent="1" source="QdD4jBaarpmnHsl3jWZD-107" target="KILsr3_PLqIHw2CQALnG-40" edge="1">
          <mxGeometry width="160" relative="1" as="geometry">
            <mxPoint x="570" y="4540" as="sourcePoint" />
            <mxPoint x="760" y="4460" as="targetPoint" />
          </mxGeometry>
        </mxCell>
        <mxCell id="KILsr3_PLqIHw2CQALnG-42" value="&amp;lt;&amp;lt;Include&amp;gt;&amp;gt;" style="edgeLabel;html=1;align=center;verticalAlign=middle;resizable=0;points=[];" parent="KILsr3_PLqIHw2CQALnG-41" vertex="1" connectable="0">
          <mxGeometry x="-0.2167" y="1" relative="1" as="geometry">
            <mxPoint x="15" y="-9" as="offset" />
          </mxGeometry>
        </mxCell>
        <mxCell id="KILsr3_PLqIHw2CQALnG-43" value="Remove User" style="ellipse;whiteSpace=wrap;html=1;" parent="1" vertex="1">
          <mxGeometry x="595" y="4830" width="120" height="80" as="geometry" />
        </mxCell>
        <mxCell id="KILsr3_PLqIHw2CQALnG-44" value="" style="endArrow=block;dashed=1;endFill=0;endSize=12;html=1;rounded=0;exitX=1;exitY=0.5;exitDx=0;exitDy=0;entryX=0;entryY=0.5;entryDx=0;entryDy=0;" parent="1" source="QdD4jBaarpmnHsl3jWZD-108" target="KILsr3_PLqIHw2CQALnG-43" edge="1">
          <mxGeometry width="160" relative="1" as="geometry">
            <mxPoint x="670" y="4780" as="sourcePoint" />
            <mxPoint x="855" y="4730" as="targetPoint" />
          </mxGeometry>
        </mxCell>
        <mxCell id="KILsr3_PLqIHw2CQALnG-45" value="&amp;lt;&amp;lt;Include&amp;gt;&amp;gt;" style="edgeLabel;html=1;align=center;verticalAlign=middle;resizable=0;points=[];" parent="KILsr3_PLqIHw2CQALnG-44" vertex="1" connectable="0">
          <mxGeometry x="-0.2167" y="1" relative="1" as="geometry">
            <mxPoint x="15" y="-9" as="offset" />
          </mxGeometry>
        </mxCell>
        <mxCell id="KILsr3_PLqIHw2CQALnG-46" value="Admin" style="shape=umlActor;verticalLabelPosition=bottom;verticalAlign=top;html=1;outlineConnect=0;" parent="1" vertex="1">
          <mxGeometry x="20" y="5160" width="30" height="60" as="geometry" />
        </mxCell>
        <mxCell id="KILsr3_PLqIHw2CQALnG-47" value="System" style="ellipse;whiteSpace=wrap;html=1;" parent="1" vertex="1">
          <mxGeometry x="120" y="5150" width="120" height="80" as="geometry" />
        </mxCell>
        <mxCell id="KILsr3_PLqIHw2CQALnG-48" value="" style="endArrow=classic;html=1;rounded=0;entryX=0;entryY=0.5;entryDx=0;entryDy=0;" parent="1" source="KILsr3_PLqIHw2CQALnG-46" target="KILsr3_PLqIHw2CQALnG-47" edge="1">
          <mxGeometry width="50" height="50" relative="1" as="geometry">
            <mxPoint x="490" y="5110" as="sourcePoint" />
            <mxPoint x="540" y="5060" as="targetPoint" />
          </mxGeometry>
        </mxCell>
        <mxCell id="KILsr3_PLqIHw2CQALnG-49" value="" style="endArrow=classic;html=1;rounded=0;exitX=1;exitY=0.5;exitDx=0;exitDy=0;entryX=0;entryY=0.5;entryDx=0;entryDy=0;" parent="1" source="KILsr3_PLqIHw2CQALnG-47" target="QdD4jBaarpmnHsl3jWZD-113" edge="1">
          <mxGeometry width="50" height="50" relative="1" as="geometry">
            <mxPoint x="520" y="5130" as="sourcePoint" />
            <mxPoint x="570" y="5080" as="targetPoint" />
          </mxGeometry>
        </mxCell>
      </root>
    </mxGraphModel>
  </diagram>
</mxfile>
